HIERARCHY
ROOT hip
{
	OFFSET 0.000000 0.000000 0.000000 
	CHANNELS 6 Xposition Yposition Zposition Xrotation Zrotation Yrotation
	JOINT abdomen
	{
		OFFSET 0.000000 3.402643 0.000000 
		CHANNELS 3 Xrotation Zrotation Yrotation
		JOINT chest
		{
			OFFSET 0.000000 8.438565 -0.680529 
			CHANNELS 3 Xrotation Zrotation Yrotation
			JOINT neck
			{
				OFFSET 0.000000 10.207942 -0.272212 
				CHANNELS 3 Xrotation Zrotation Yrotation
				JOINT head
				{
					OFFSET 0.000000 3.130431 0.000000 
					CHANNELS 3 Xrotation Zrotation Yrotation
					End Site
					{
						OFFSET 0.000000 3.130435 0.000000 
					}
				}
			}
			JOINT lCollar
			{
				OFFSET 3.470700 6.669187 -0.816635 
				CHANNELS 3 Yrotation Zrotation Xrotation
				JOINT lShldr
				{
					OFFSET 3.198488 0.000000 0.000000 
					CHANNELS 3 Zrotation Yrotation Xrotation
					JOINT lForeArm
					{
						OFFSET 10.139888 0.000000 0.000000 
						CHANNELS 3 Yrotation Zrotation Xrotation
						JOINT lHand
						{
							OFFSET 8.370511 0.000000 0.000000 
							CHANNELS 3 Zrotation Yrotation Xrotation
							End Site
							{
								OFFSET 4.083176 0.000000 0.000000 
							}
						}
					}
				}
			}
			JOINT rCollar
			{
				OFFSET -3.470700 6.669187 -0.816635 
				CHANNELS 3 Yrotation Zrotation Xrotation
				JOINT rShldr
				{
					OFFSET -3.198488 0.000000 0.000000 
					CHANNELS 3 Zrotation Yrotation Xrotation
					JOINT rForeArm
					{
						OFFSET -10.139888 0.000000 0.000000 
						CHANNELS 3 Yrotation Zrotation Xrotation
						JOINT rHand
						{
							OFFSET -8.370511 0.000000 0.000000 
							CHANNELS 3 Zrotation Yrotation Xrotation
							End Site
							{
								OFFSET -4.083176 0.000000 0.000000 
							}
						}
					}
				}
			}
		}
	}
	JOINT lThigh
	{
		OFFSET 5.308129 -1.633274 1.361059 
		CHANNELS 3 Xrotation Zrotation Yrotation
		JOINT lShin
		{
			OFFSET -2.041588 -20.007561 0.000000 
			CHANNELS 3 Xrotation Zrotation Yrotation
			JOINT lFoot
			{
				OFFSET 0.000000 -19.190928 -1.224953 
				CHANNELS 3 Xrotation Yrotation Zrotation
				End Site
				{
					OFFSET 0.000000 -2.449906 4.627600 
				}
			}
		}
	}
	JOINT rThigh
	{
		OFFSET -5.308129 -1.633274 1.361059 
		CHANNELS 3 Xrotation Zrotation Yrotation
		JOINT rShin
		{
			OFFSET 2.041588 -20.007561 0.000000 
			CHANNELS 3 Xrotation Zrotation Yrotation
			JOINT rFoot
			{
				OFFSET 0.000000 -19.190928 -1.224953 
				CHANNELS 3 Xrotation Yrotation Zrotation
				End Site
				{
					OFFSET 0.000000 -2.449906 4.627600 
				}
			}
		}
	}
}
MOTION
Frames: 14
Frame Time: 0.033333
5.237400 41.793373 69.372681 -166.464844 165.751953 4.963341 13.671874 -4.697266 -18.710939 -16.826172 -12.392579 -18.839987 2.988281 8.945313 12.101129 22.861328 -2.441406 14.013672 -2.119140 19.404297 0.856131 61.533203 -127.167976 -72.431641 -63.974613 -3.310547 -36.914063 -1.396484 18.066475 -0.944241 -1.757813 -2.558594 0.097656 64.150383 3.896484 -45.859379 86.855469 3.574219 -45.537109 -21.855469 -16.552736 5.807765 12.907034 28.395792 21.998135 54.041424 -0.143514 -3.291040 -28.401592 42.472099 16.151049 -30.198875 4.187165 8.918015 61.031654 -0.776612 3.681983 -8.064856 11.857876 6.800073 
5.523337 41.776623 69.895416 -167.167969 167.158203 6.535373 15.029299 -5.830078 -17.950212 -17.177734 -11.162109 -17.597658 2.675781 8.896484 10.166015 22.519531 -0.859375 12.245947 -2.119141 19.755859 0.878906 -110.488281 -48.623047 98.867188 -67.246094 -2.978516 -33.613285 2.177734 17.246092 0.126953 -1.757813 -2.558594 0.097656 67.421875 1.914063 -42.089516 89.248047 3.466797 -48.671875 -21.865234 -13.173828 4.628906 9.567501 29.254950 21.284311 55.791107 0.031867 -3.461964 -27.386728 40.074043 14.656917 -29.151470 2.800028 7.251678 58.946938 -0.863950 3.173110 -12.218549 7.647263 6.597968 
5.923430 41.721210 70.491676 11.601563 11.601563 -171.035156 16.757811 -7.294922 -17.304688 -17.363279 -9.931641 -16.183767 1.689453 8.740234 7.345233 22.187500 1.250000 9.775603 -1.630859 20.283203 0.869141 -105.029297 -44.228519 92.258812 -68.964844 -2.929688 -29.892080 3.095703 15.830078 0.246806 -1.416016 -2.031250 -0.058594 70.078125 0.380859 -39.140656 90.751953 3.593750 -52.392582 -21.132813 -10.097656 3.426024 4.859196 31.009342 19.982954 58.623882 0.021691 -3.254827 -24.922796 36.649345 11.486856 -28.949558 0.672901 5.236280 57.351219 -0.600216 3.452078 -16.846003 3.541961 6.347052 
6.400609 41.583290 71.166504 10.371094 10.371094 -167.840042 19.023438 -8.466797 -16.388157 -17.890627 -8.525391 -14.589843 0.214844 8.359375 4.062500 21.503908 3.544922 6.582635 -1.318359 20.107422 0.908203 -100.634766 -40.839848 87.522911 -70.449211 -2.871094 -27.138182 5.048828 15.253907 0.859375 -0.537109 -1.328127 -0.019305 72.412109 -0.390625 -37.480465 91.933594 3.623047 -53.164680 -19.482422 -9.052735 2.664479 -2.512206 33.673019 16.339102 63.374306 0.372517 -3.283855 -20.786270 31.201557 6.715117 -30.313366 -1.250424 2.736866 57.208130 -0.687917 3.032741 -18.883947 1.133525 5.463027 
6.841339 41.330353 71.891937 8.955078 9.306641 -164.892578 21.279299 -9.189452 -15.167574 -18.076170 -7.119140 -12.833241 -1.386719 7.597657 0.458984 20.634768 5.830078 3.204117 -0.996094 19.228516 0.947266 -96.572266 -38.525387 83.392357 -72.119141 -2.753906 -24.853516 8.105469 15.126953 1.621094 0.693359 -0.273438 0.000000 72.880859 -0.390625 -35.283203 92.656250 3.623047 -54.619144 -18.955078 -7.470703 2.176466 -10.556288 35.690166 11.558263 68.603180 0.423128 -3.512171 -16.373840 24.892653 2.432228 -32.633167 -3.524699 0.831732 58.421490 -0.711372 3.234153 -18.476379 -0.079682 5.140330 
7.135650 40.931984 72.603455 7.724609 8.251954 -162.773438 23.349607 -9.501953 -13.437500 -18.251955 -5.898438 -10.712890 -2.812500 6.201172 -2.548828 19.765623 7.773438 0.009765 -0.595703 17.832031 0.817322 -93.417969 -36.992188 78.871078 -72.500000 -2.656250 -23.153843 9.257812 15.224609 1.884766 2.109375 0.605465 -0.205182 71.767578 1.054687 -32.949215 92.685547 3.662110 -58.144531 -18.818357 -6.220703 1.678631 -17.217041 36.650486 7.212898 73.703178 0.914073 -3.936054 -14.823167 20.363007 0.695509 -35.190117 -5.965677 -0.406606 60.169712 -0.887240 3.382466 -18.483156 -0.128506 4.923177 
7.248204 40.424633 73.275566 7.197265 7.197265 -161.718750 24.687500 -9.316407 -11.583612 -18.251955 -5.195313 -8.603515 -3.779297 4.824219 -3.818360 18.720703 9.355469 -4.080444 -0.214844 16.787109 0.712891 -90.839844 -35.634766 74.261887 -72.714844 -2.607422 -21.278852 9.345703 15.908202 2.102286 3.515625 1.660156 -0.107705 70.341797 3.857422 -30.810543 91.210938 3.574219 -58.916630 -17.480469 -4.990234 1.250000 -20.038710 37.040001 5.686333 78.601532 1.427627 -3.925053 -14.987967 21.839525 1.160894 -37.488224 -7.910047 -0.609984 62.108345 -0.888726 3.284881 -18.669065 -0.218645 4.684722 
7.211261 39.862980 73.936356 6.855469 6.494140 -161.191406 25.830076 -9.013672 -9.482422 -17.900389 -4.306641 -6.670655 -4.873047 3.691406 -6.151715 17.832029 9.716797 -6.220703 0.478516 16.093729 0.690653 -88.798828 -34.628906 71.908508 -72.958984 -2.490234 -18.134344 10.644532 15.283204 2.356091 4.570313 2.880860 -0.244631 69.277344 7.255859 -29.266346 89.482422 3.623047 -58.897102 -15.302735 -4.638672 0.878906 -20.339016 36.752201 4.895819 82.829361 1.417163 -3.776602 -14.153741 25.410843 1.529887 -39.916386 -9.344779 -0.180035 64.033409 -1.015750 3.441237 -18.293362 0.191064 4.903518 
7.080112 39.318935 74.640732 6.669922 5.976563 -160.312500 26.572268 -8.574219 -7.911612 -17.382813 -3.251953 -5.097656 -5.625000 2.421875 -8.134767 16.953125 10.068359 -8.191652 0.664063 15.566406 0.651676 -88.310547 -32.714844 68.798828 -72.705078 -2.373047 -15.966395 11.542970 14.863280 2.463443 5.449219 4.121094 -0.225311 68.115234 10.458985 -28.757992 88.662109 3.574219 -58.906864 -13.720702 -5.048828 0.809689 -19.127121 36.271397 3.856465 83.862885 1.739088 -4.043470 -11.342106 24.859190 0.158251 -41.863270 -10.526908 0.379663 65.623581 -0.907292 3.088845 -17.913082 0.341000 4.959368 
6.893059 38.863304 75.419617 6.328125 5.976563 -158.543915 27.275391 -7.695313 -6.552734 -17.031250 -1.669922 -4.043253 -6.533203 1.484375 -10.331778 16.064453 9.902344 -10.166015 0.986328 15.039063 0.732422 -88.242188 -30.722658 65.532120 -72.167969 -2.275391 -14.179687 12.197266 13.964844 2.412109 6.337891 5.517578 -0.449219 66.572266 13.173827 -28.525389 88.193359 3.613281 -58.740227 -11.953125 -5.458984 0.731495 -16.998108 35.187283 3.110314 81.758774 1.592715 -3.746830 -11.464861 21.843103 -0.349052 -43.323524 -12.107950 0.756259 66.336685 -0.898570 3.104719 -17.062078 -0.043546 4.958405 
6.663273 38.512348 76.300705 5.966797 5.966797 -155.926712 28.144531 -6.884765 -5.576172 -16.689455 0.087891 -3.339844 -7.441407 0.556641 -12.529297 15.537109 9.550781 -12.303066 1.044922 14.160156 0.583549 -88.515625 -29.394531 63.432705 -71.777344 -2.167969 -12.021485 14.062500 13.427733 2.832031 7.031250 6.582031 -0.478516 65.205078 15.156251 -28.593748 87.851563 3.691406 -58.925785 -10.009766 -5.517578 0.672891 -16.111927 34.459465 2.656363 78.413445 1.407894 -4.269421 -15.675352 21.130125 0.908167 -44.368938 -13.875314 1.405443 66.512161 -0.917258 3.100325 -15.874425 -1.136472 5.123038 
6.400979 38.277760 77.254951 5.966797 5.966797 -152.928680 29.375002 -6.240234 -4.649499 -16.513672 2.197266 -2.460938 -8.349608 -0.175781 -14.570342 14.824219 9.023438 -14.443360 1.054688 13.105428 0.564195 -88.759766 -28.427734 62.632069 -71.318359 -2.177735 -10.732050 16.240232 12.499999 3.183594 7.548829 7.294923 -0.430927 63.632809 15.761719 -28.750002 87.666016 3.652344 -60.361954 -8.730469 -5.048828 0.410156 -16.529694 33.908279 2.204360 76.503448 0.949832 -4.028931 -21.570801 20.718477 3.491820 -44.757782 -15.642262 1.332190 65.810219 -0.888784 3.079141 -14.330843 -1.914334 4.315631 
6.076004 38.147350 78.250565 6.152344 5.976563 -150.478516 30.791016 -5.703125 -3.388672 -16.171875 3.955079 -1.581357 -9.609375 -0.898438 -16.621094 13.935547 8.496094 -16.590353 1.103516 11.875000 0.427678 -88.935547 -28.515627 62.192600 -70.253906 -2.089844 -10.448863 16.894533 10.439453 2.755678 8.056641 7.841796 -0.401723 62.861332 16.708984 -29.333132 87.041016 3.662109 -60.234371 -6.611328 -5.429687 0.351562 -17.929148 33.163086 2.925213 75.981491 1.095851 -3.740884 -27.023710 21.530525 5.884326 -44.411331 -17.401619 1.927909 64.754555 -0.713026 2.968207 -12.497120 -3.207871 4.249896 
5.700787 38.109055 79.261436 6.328125 5.976563 -148.524384 31.845703 -4.941407 -2.236328 -15.820312 5.361329 -0.702213 -10.341798 -1.601563 -18.496092 12.705077 7.968749 -18.583984 0.937500 10.820313 0.486448 -88.388672 -28.613281 61.943359 -69.091797 -2.177735 -11.064082 17.597656 8.564038 2.325428 8.417968 8.359375 -0.527344 62.597660 17.666016 -30.397425 86.328125 3.613281 -58.526005 -4.287109 -5.644531 0.135760 -19.311855 32.091362 3.769076 75.974731 1.242851 -3.784392 -30.820736 22.106337 8.118012 -43.832737 -18.943666 1.903710 63.170139 -0.722668 3.251594 -10.941567 -3.991703 3.875388 
